/* XPM */
static char *bed7a902555b45989d7eb68f690d1370[] = {
/* columns rows colors chars-per-pixel */
"32 32 146 2 ",
"   c #002775",
".  c #002977",
"X  c #062B75",
"o  c #002978",
"O  c #002B79",
"+  c #002C7B",
"@  c #002D7D",
"#  c #09317B",
"$  c #0A317B",
"%  c #0C3179",
"&  c #0C317B",
"*  c #0C337E",
"=  c #0C347F",
"-  c #252D6C",
";  c #74385E",
":  c #473265",
">  c #443367",
",  c #4B3469",
"<  c #533766",
"1  c #593260",
"2  c #5F3D6F",
"3  c #713F64",
"4  c #5C4878",
"5  c #774674",
"6  c #CD3738",
"7  c #CC3739",
"8  c #CD3739",
"9  c #CE3739",
"0  c #C7383C",
"q  c #C9383C",
"w  c #D03636",
"e  c #D03737",
"r  c #D13737",
"t  c #D23736",
"y  c #D33736",
"u  c #D03838",
"i  c #D13838",
"p  c #D13939",
"a  c #D13A3A",
"s  c #D23B3B",
"d  c #D43B3A",
"f  c #D23C3C",
"g  c #D23D3D",
"h  c #D33D3D",
"j  c #D33E3E",
"k  c #D33F3F",
"l  c #D53D3C",
"z  c #D43E3E",
"x  c #803857",
"c  c #9D3D56",
"v  c #A43545",
"b  c #B03948",
"n  c #B33D49",
"m  c #A93D51",
"M  c #C23940",
"N  c #984C64",
"B  c #D34040",
"V  c #D44040",
"C  c #D44141",
"Z  c #D64241",
"A  c #D44242",
"S  c #D54242",
"D  c #D54343",
"F  c #D54444",
"G  c #D64444",
"H  c #D64545",
"J  c #D64646",
"K  c #D64747",
"L  c #D74747",
"P  c #DA4645",
"I  c #D74949",
"U  c #D84A4A",
"Y  c #D84B4B",
"T  c #DC4A49",
"R  c #D84C4C",
"E  c #D94D4D",
"W  c #DA4F4F",
"Q  c #DE4F4E",
"!  c #DA5050",
"~  c #DA5151",
"^  c #DB5151",
"/  c #DB5252",
"(  c #DF5453",
")  c #DC5454",
"_  c #DC5555",
"`  c #DD5656",
"'  c #DD5757",
"]  c #DE5A5A",
"[  c #DE5B5B",
"{  c #E15958",
"}  c #CF636A",
"|  c #DA6C70",
" . c #E06060",
".. c #E16161",
"X. c #E26160",
"o. c #E26363",
"O. c #E26565",
"+. c #E66E6E",
"@. c #E97474",
"#. c #E97575",
"$. c #E97676",
"%. c #003084",
"&. c #003284",
"*. c #0C3480",
"=. c #0C3581",
"-. c #0C3683",
";. c #0C3987",
":. c #00388E",
">. c #0C3988",
",. c #0C3A89",
"<. c #0C3B8B",
"1. c #0A3B8C",
"2. c #0C3C8C",
"3. c #0C3D8E",
"4. c #003F9A",
"5. c #0B4297",
"6. c #0C4296",
"7. c #0C4499",
"8. c #0C449A",
"9. c #0047A5",
"0. c #0C4BA4",
"q. c #0C4CA6",
"w. c #0048A9",
"e. c #0B4DA8",
"r. c #0C4EA9",
"t. c #0C4EAA",
"y. c #0C4FAA",
"u. c #004EB1",
"i. c #004FB2",
"p. c #0C53B1",
"a. c #0C55B4",
"s. c #0C55B5",
"d. c #0C56B5",
"f. c #0C57B7",
"g. c #0054BC",
"h. c #0055BC",
"j. c #0C57B8",
"k. c #0C58B9",
"l. c #005AC4",
"z. c #005AC5",
"x. c #0C5DC2",
"c. c #0C5EC2",
"v. c #0C5EC3",
"b. c #0C5FC5",
"n. c #0C62CA",
"m. c None",
/* pixels */
"m.m.m.m.m.m.m.m.m.m.m.m.m.m.m.m.m.m.m.m.m.m.m.m.m.m.m.m.m.m.m.m.",
"m.m.m.m.m.m.m.m.m.m.m.m.m.m.m.m.m.m.m.m.m.m.m.m.m.m.m.m.m.m.m.m.",
"m.m.m.m.m.m.m.m.m.m.A B k m.m.m.m.m.e e e e m.m.m.m.m.m.m.m.m.m.",
"m.m.m.m.m.m.m.m.E U H H A k k u u u e e e e e e m.m.m.m.m.m.m.m.",
"m.m.m.m.m.m.m.) ~ E U H H A k l k u u e e e e e e m.m.m.m.m.m.m.",
"m.m.m.m.m.m.m.) ) ) E E m.m.m.m.m.m.m.u u e e e m.m.m.m.m.m.m.m.",
"m.m.m.m.m.m.m.o.[ ) m.m.m.m.q.5.1.m.m.m.u p e e m.m.m.m.m.m.m.m.",
"m.m.m.m.m.m.$.+.m.m.m.m.m.v.f.0.6.<.m.m.m.m.p u e m.m.m.m.m.m.m.",
"m.m.m.m.m.m.o.m.m.m.m.f.b.n.v.f.0.6.<.& m.m.p u p m.m.m.m.m.m.m.",
"m.m.m.u e e e m.m.m.7.t.k.v.m.m.m.0.6.<.= & m.k p p m.m.u r m.m.",
"m.m.e e e e m.m.% *.<.7.t.f.m.m.m.p.0.6.<.& % n l l s u 9 r m.m.",
"m.m.e e e e m.m.m.& *.<.7.t.k.m.m.v.f.0.6.<.m.x G l k u u u m.m.",
"m.e e e e m.m.m.g.m.m.*.2.7.t.k.b.n.v.f.0.m.  : P H A k k u u m.",
"m.e e e e m.m.m.u.m.m.m.-.2.8.y.k.b.n.m.m.m.  > T H A A l k k m.",
"m.e e e e m.m.m.9.m.m.m.m.m.2.8.t.m.m.m.m.m.  < Q E U H A A k m.",
"m.m.m.e e m.m.m.4.m.r m.m.m.m.m.m.m.m.e m.m.  3 ) E E U H H A m.",
"m.m.m.r r m.m.m.:.m.r e r m.m.m.m.m.r r e m.X N { ) ) ~ E U H m.",
"m.m.m.m.e r m.m.&.m.r e e m.m.z.m.m.e r e m.4 } o.[ ) ~ E E E m.",
"m.m.m.m.e e m.m.@ m.m.r e m.m.z.m.m.e e m.m.| $.+.O.m.m.m.~ E m.",
"m.m.m.m.e e r m.  @ m.m.m.m.m.g.m.m.m.m.m.0 G O.@.m.m.m.m.m.m.m.",
"m.m.m.m.e e e e m.  @ m.m.m.m.u.m.m.m.m.c 8 w u ~ m.m.m.m.m.m.m.",
"m.m.e r e e e e r m.- @ %.m.m.w.m.m.5 m 8 r e e m.m.m.m.m.m.m.m.",
"m.m.e e e e e e r r y v 1 , ; 2 b M q r r e e r m.m.m.m.m.m.m.m.",
"m.m.m.e e e e e r r r r e 7 9 e r r e e m.r e m.m.m.m.m.m.m.m.m.",
"m.m.m.r e e e e e e e e e e e e e e m.m.m.m.e e m.m.m.m.m.m.m.m.",
"m.m.m.m.e e e e e m.m.e e e e e m.e m.e e m.m.e u m.m.m.m.m.m.m.",
"m.m.m.m.m.r e e m.m.m.m.m.m.m.e e m.m.m.m.e e e e e m.m.m.m.m.m.",
"m.m.m.m.m.m.e e m.m.m.m.m.m.m.e e m.e e e e e e e m.m.m.m.m.m.m.",
"m.m.m.m.m.m.m.m.m.m.m.m.m.m.m.m.e e e e e e e m.m.m.m.m.m.m.m.m.",
"m.m.m.m.m.m.m.m.m.m.m.m.m.m.m.e e e e e e m.m.m.m.m.m.m.m.m.m.m.",
"m.m.m.m.m.m.m.m.m.m.m.m.m.m.m.e e e m.m.m.m.m.m.m.m.m.m.m.m.m.m.",
"m.m.m.m.m.m.m.m.m.m.m.m.m.m.m.m.m.m.m.m.m.m.m.m.m.m.m.m.m.m.m.m."
};
