/* XPM */
static char *_75b6baa4ce744e09efdd9ddcedb10e3[] = {
/* columns rows colors chars-per-pixel */
"64 64 253 2 ",
"   c #002775",
".  c #002874",
"X  c #012874",
"o  c #002975",
"O  c #002A76",
"+  c #002A77",
"@  c #0F2E77",
"#  c #002A78",
"$  c #002A7A",
"%  c #002C7A",
"&  c #002C7B",
"*  c #002D7B",
"=  c #002C7C",
"-  c #002D7C",
";  c #002E7E",
":  c #002F7F",
">  c #032F7F",
",  c #172D71",
"<  c #0B317A",
"1  c #0C317A",
"2  c #0C327B",
"3  c #0C327C",
"4  c #0C327D",
"5  c #0C337D",
"6  c #0C337E",
"7  c #0C347F",
"8  c #263677",
"9  c #6F355C",
"0  c #7A3456",
"q  c #78375B",
"w  c #412F65",
"e  c #41376D",
"r  c #B7363F",
"t  c #CF3737",
"y  c #CB3739",
"u  c #CE3738",
"i  c #C7383B",
"p  c #CB383A",
"a  c #CC383A",
"s  c #D23735",
"d  c #D03636",
"f  c #D03737",
"g  c #D13737",
"h  c #D23736",
"j  c #D33736",
"k  c #D43736",
"l  c #D03838",
"z  c #D13838",
"x  c #D13939",
"c  c #D13A3A",
"v  c #D23B3B",
"b  c #D23C3C",
"n  c #D23D3D",
"m  c #D33D3D",
"M  c #D33E3E",
"N  c #D33F3F",
"B  c #D53E3D",
"V  c #D43F3E",
"C  c #8D344D",
"Z  c #9F394F",
"A  c #8F3E5D",
"S  c #913954",
"D  c #953F5C",
"F  c #9F3F59",
"G  c #A93748",
"H  c #AC3B4D",
"J  c #B53945",
"K  c #B13B4A",
"L  c #B33C4A",
"P  c #814869",
"I  c #855577",
"U  c #D34040",
"Y  c #D24242",
"T  c #D44040",
"R  c #D54040",
"E  c #D44141",
"W  c #D44242",
"Q  c #D54242",
"!  c #D54343",
"~  c #D54444",
"^  c #D54545",
"/  c #D64545",
"(  c #D64646",
")  c #D64747",
"_  c #D74747",
"`  c #D74848",
"'  c #D74949",
"]  c #D74A4A",
"[  c #D84949",
"{  c #D84A4A",
"}  c #D84B4B",
"|  c #D84C4C",
" . c #D94C4C",
".. c #D94D4D",
"X. c #D94E4E",
"o. c #DA4E4E",
"O. c #DA4F4F",
"+. c #DA5050",
"@. c #DA5151",
"#. c #DB5151",
"$. c #DB5252",
"%. c #DB5353",
"&. c #D85455",
"*. c #DB5657",
"=. c #DC5454",
"-. c #DC5555",
";. c #DC5656",
":. c #DD5656",
">. c #DD5757",
",. c #DD5858",
"<. c #DE5858",
"1. c #DE5959",
"2. c #DD595A",
"3. c #DE5A5A",
"4. c #DE5B5B",
"5. c #DF5B5B",
"6. c #DF5C5C",
"7. c #DF5D5D",
"8. c #E25D5C",
"9. c #E05E5E",
"0. c #E05F5F",
"q. c #C7606A",
"w. c #DC7377",
"e. c #E16161",
"r. c #E26363",
"t. c #E36363",
"y. c #E26464",
"u. c #E26565",
"i. c #E36565",
"p. c #E36666",
"a. c #E46666",
"s. c #E46868",
"d. c #E46969",
"f. c #E56A6A",
"g. c #E56B6B",
"h. c #E66D6D",
"j. c #E66E6E",
"k. c #E66F6F",
"l. c #E76F6F",
"z. c #E77070",
"x. c #E77171",
"c. c #E87272",
"v. c #E87373",
"b. c #E97474",
"n. c #E97575",
"m. c #E97676",
"M. c #EA7777",
"N. c #EA7878",
"B. c #EB7878",
"V. c #EB7979",
"C. c #002F80",
"Z. c #003183",
"A. c #003283",
"S. c #003284",
"D. c #003285",
"F. c #0C3480",
"G. c #0C3581",
"H. c #0C3582",
"J. c #0C3683",
"K. c #0C3784",
"L. c #0C3785",
"P. c #0C3886",
"I. c #0C3987",
"U. c #003588",
"Y. c #003589",
"T. c #00368A",
"R. c #00388E",
"E. c #00398F",
"W. c #0C3988",
"Q. c #0C3A89",
"!. c #0C3B8B",
"~. c #0C3C8C",
"^. c #0C3C8D",
"/. c #0C3D8E",
"(. c #0C3D8F",
"). c #003B93",
"_. c #003C95",
"`. c #0C3F92",
"'. c #003F99",
"]. c #0C4092",
"[. c #0C4093",
"{. c #0C4296",
"}. c #00409B",
"|. c #02409A",
" X c #00439F",
".X c #0A439B",
"XX c #0C4499",
"oX c #0C449A",
"OX c #0C469D",
"+X c #0C479E",
"@X c #374E9B",
"#X c #0044A1",
"$X c #0044A2",
"%X c #0047A5",
"&X c #0048A7",
"*X c #0C49A2",
"=X c #0C4CA5",
"-X c #0C4CA6",
";X c #0048A8",
":X c #004AAB",
">X c #004BAC",
",X c #004BAD",
"<X c #004CAD",
"1X c #0C4EA9",
"2X c #0C4EAA",
"3X c #0C4FAA",
"4X c #0C50AC",
"5X c #0C50AD",
"6X c #0C51AE",
"7X c #004EB1",
"8X c #004EB2",
"9X c #004FB2",
"0X c #004FB3",
"qX c #0051B6",
"wX c #0052B7",
"eX c #0C53B1",
"rX c #0C53B2",
"tX c #0C54B3",
"yX c #0C55B5",
"uX c #0C56B6",
"iX c #0052B8",
"pX c #0054BB",
"aX c #0055BC",
"sX c #0055BD",
"dX c #0057BF",
"fX c #0C57B8",
"gX c #0C58B9",
"hX c #0C58BA",
"jX c #0C5ABC",
"kX c #0C5ABD",
"lX c #0C5BBE",
"zX c #0C5BBF",
"xX c #0C5CBF",
"cX c #1D56B3",
"vX c #614880",
"bX c #614A83",
"nX c #0057C0",
"mX c #0058C1",
"MX c #0059C2",
"NX c #0059C3",
"BX c #005AC4",
"VX c #005AC5",
"CX c #005BC6",
"ZX c #005BC7",
"AX c #0C5CC0",
"SX c #0C5EC2",
"DX c #0C5EC3",
"FX c #0C5FC5",
"GX c #0C60C6",
"HX c #0C61C9",
"JX c #0C63CB",
"KX c #0C63CC",
"LX c None",
/* pixels */
"LXLXLXLXLXLXLXLXLXLXLXLXLXLXLXLXLXLXLXLXLXLXLXLXLXLXLXLXLXLXLXLXLXLXLXLXLXLXLXLXLXLXLXLXLXLXLXLXLXLXLXLXLXLXLXLXLXLXLXLXLXLXLXLX",
"LXLXLXLXLXLXLXLXLXLXLXLXLXLXLXLXLXLXLXLXLXLXLXLXLXLXLXLXLXLXLXLXLXLXLXLXLXLXLXLXLXLXLXLXLXLXLXLXLXLXLXLXLXLXLXLXLXLXLXLXLXLXLXLX",
"LXLXLXLXLXLXLXLXLXLXLXLXLXLXLXLXLXLXLXLXLXLXLXLXLXLXLXLXLXLXLXLXLXLXLXLXLXLXLXLXLXLXLXLXLXLXLXLXLXLXLXLXLXLXLXLXLXLXLXLXLXLXLXLX",
"LXLXLXLXLXLXLXLXLXLXLXLXLXLXLXLXLXLXLXLXLXLXLXLXLXLXLXLXLXLXLXLXLXLXLXLXf f l l f LXLXLXLXLXLXLXLXLXLXLXLXLXLXLXLXLXLXLXLXLXLXLX",
"LXLXLXLXLXLXLXLXLXLXLXLXLXLXLXLXLXLXLXLXLXLXM M M l LXLXLXLXLXLXLXLXLXLXf f f f f f f f LXLXLXLXLXLXLXLXLXLXLXLXLXLXLXLXLXLXLXLX",
"LXLXLXLXLXLXLXLXLXLXLXLXLXLXLXLXLXLXLXLX^ ! ! V M ! LXLXLXLXLXLXLXLXLXLXf f f f f f f f f f LXLXLXLXLXLXLXLXLXLXLXLXLXLXLXLXLXLX",
"LXLXLXLXLXLXLXLXLXLXLXLXLXLXLXLXLXLX} ^ ^ ! ! ! M M LXLXLXLXLXLXLXLXf f f f f f f f f f f f f f LXLXLXLXLXLXLXLXLXLXLXLXLXLXLXLX",
"LXLXLXLXLXLXLXLXLXLXLXLXLXLXLXLXO.} } } } ^ ^ ^ ! ! E M M l M l l l l l f f f f f f f f f f f f f f LXLXLXLXLXLXLXLXLXLXLXLXLXLX",
"LXLXLXLXLXLXLXLXLXLXLXLXLXLXLX$.O.O.| ] ] ] ^ ^ ~ ! E ! M M M M V l l v f f f f f f f f f f f f f f LXLXLXLXLXLXLXLXLXLXLXLXLXLX",
"LXLXLXLXLXLXLXLXLXLXLXLXLXLX=.=.$.$.O.O.} ] ] ] ^ ^ ! ! E M M M v v v l v l f f f f f f f f f f f LXLXLXLXLXLXLXLXLXLXLXLXLXLXLX",
"LXLXLXLXLXLXLXLXLXLXLXLXLXLXLX=.=.$.$.$.O.O.] ] LXLXLXLXLXLXLXLXLXLXLXLXl v l v f f f f f f f LXLXLXLXLXLXLXLXLXLXLXLXLXLXLXLXLX",
"LXLXLXLXLXLXLXLXLXLXLXLXLXLXLX5.5.=.=.$.$.O.LXLXLXLXLXLXLXLXLXLXLXLXLXLXLXLXv l v l f f f f f LXLXLXLXLXLXLXLXLXLXLXLXLXLXLXLXLX",
"LXLXLXLXLXLXLXLXLXLXLXLXLXLXLX7.5.=.5.=.LXLXLXLXLXLXLXLXLXLX{.^.!.LXLXLXLXLXLXLXf v k g g g f LXLXLXLXLXLXLXLXLXLXLXLXLXLXLXLXLX",
"LXLXLXLXLXLXLXLXLXLXLXLXLXLXp.e.7.5.LXLXLXLXLXLXLXLXLXLX6X=X+X{.^.!.LXLXLXLXLXLXLXLXl v l u f f LXLXLXLXLXLXLXLXLXLXLXLXLXLXLXLX",
"LXLXLXLXLXLXLXLXLXLXLXLXLXc.j.d.p.LXLXLXLXLXLXLXLXLXLXlXuX4X-X+X{.^.P.J.LXLXLXLXLXLXLXl l l l f f LXLXLXLXLXLXLXLXLXLXLXLXLXLXLX",
"LXLXLXLXLXLXLXLXLXLXLXLXLXb.b.j.LXLXLXLXLXLXLXLXLXKXJXAXlXuX6X-X+X{.`.P.J.3 LXLXLXLXLXLXl l v l f LXLXLXLXLXLXLXLXLXLXLXLXLXLXLX",
"LXLXLXLXLXLXLXLXLXLXLXLXj.V.b.LXLXLXLXLXLXLXLXAXGXJXKXJXAXlXuX6X-X+X{.^.!.F.F.LXLXLXLXLXLXl v l l f LXLXLXLXLXLXLXLXLXLXLXLXLXLX",
"LXLXLXLXLXLXl LXLXLXLXl ! e.LXLXLXLXLXLXLXLXeXgXAXGXJXKXJXAXgXuX6X=X+XoX^.W.J.3 2 LXLXLXLXb V l v f v LXLXLXLXLXLXLXLXLXLXLXLXLX",
"LXLXLXLXLXLXf f LXf f f f LXLXLXLXLXLXLXoX*X3XeXgXxXGXJXLXLXLXLXtX4X=X+X{.(.W.F.3 2 LXLXLXLXl v l l f k LXLXLXLXLXLXg LXLXLXLXLX",
"LXLXLXLXLXf f f f f f f f LXLXLXLXLXLX^.].oX*X3XrXgXAXLXLXLXLXLXLXLX4X=X+X{.(.W.J.3 2 2 LXLXV b V V l l l LXLXLXl g g g LXLXLXLX",
"LXLXLXLXLXf f f f f f f LXLXLXLXLX2 7 J.!.].oX*X3XrXfXLXLXLXLXLXLXLXuX6X=X+X{.^.K.F.3 3 2 LXLXV V b b l l l g g g g g g LXLXLXLX",
"LXLXLXLXf f f f f f f f LXLXLXLX2 2 2 7 K.!.].oX*X3XrXuXLXLXLXLXLXLXLXuXrX-X+X{.`.W.F.3 < 3 LX! N V b b b b b l l u g g LXLXLXLX",
"LXLXLXLXf f f f f f f LXLXLXLXLXLXLX2 2 7 K.!.].oX*X3XrXgXLXLXLXLXLXLXlXtX4X=X+X{.^.!.F.3 LXLXE E N N M b b l l l l l l g LXLXLX",
"LXLXLXf f f f f f f f LXLXLXLXLXnXLXLX2 2 7 K.!.`.oX*X3XLXgXlXLXLXLXJXAXlXtXrX=X+X{.`.LXLXX X LX~ ! E N E b b b b l l l u LXLXLX",
"LXLXLXf f f f f f f f LXLXLXLXLXaXaXLXLXLX2 7 K.!.].oX*X3XrXfXlXFXJXKXJXAXlXuX6X-X+XLXLXLXX   LX^ ~ ~ E N M M b M l l l l LXLXLX",
"LXLXLXf f f f f f f f LXLXLXLXLXiXpXLXLXLXLX3 7 K.!.].oX*X3XrXgXAXGXJXKXJXAXlXuXLXLXLXLXLXX   LX` ^ ~ ~ ! ! N V M V b l b LXLXLX",
"LXLXf f f f f f f f LXLXLXLXLXLX9XwXLXLXLXLXLXLXF.K.!.].oX*X3XrXgXxXGXJXJXJXAXLXLXLXLXLXLXX   LX` ` _ ^ ~ ~ ! V M M M b M l LXLX",
"LXLXf f f f f f f f LXLXLXLXLXLX,X9XLXLXLXLXLXLXLXJ.K.!.].oX*X3XrXgXAXGXJXLXLXLXLXLXLXLXLXX   LX .} ` ` ^ ~ ! ! ! M M b b b LXLX",
"LXLXf f f f f f f f LXLXLXLXLXLX&X:XLXLXLXLXLXLXLXLXLXP.!.].oX*X3XrXgXAXLXLXLXLXLXLXLXLXLXX   LXo. .} } ^ _ ^ ~ ! ! V M V M LXLX",
"LXLXf f f f f f f f LXLXLXLXLXLX#X%XLXLXLXLXLXLXLXLXLXLXLX^.`.oX*X3XLXLXLXLXLXLXLXLXLXLXLXX   LX#.#. .} } ] ` ^ ~ ! ! ! N M LXLX",
"LXLXf f LXLXf f f f LXLXLXLXLXLX}. XLXLXLXf f LXLXLXLXLXLXLX^.].LXLXLXLXLXLXLXLXLXLXLXLXLXX   &.%.$.O.O. .} } _ ^ ^ ^ ! ! V LXLX",
"LXLXLXLXLXLXLXf f f f LXLXLXLXLX_.'.LXLXf f f LXLXLXLXLXLXLXLXLXLXLXLXLXLXf f f LXLXLXLXLXX , ,.=.%.%.O.O.O.} } } ` ^ ^ ~ ! LXLX",
"LXLXLXLXLXLXLXf f f f LXLXLXLXLXR.).LXLXg t g t g t LXLXLXLXLXLXLXLXLXLXLXf f f LXLXLXLXLX  e 5.5.=.=.=.$.$.O.O.] ] ] ^ ^ ~ LXLX",
"LXLXLXLXLXLXLXf f f f LXLXLXLXLXY.R.LXLXt g t g t g g LXLXLXmXLXLXLXLXLXLXf f f f f LXLXLXX P 8.5.=.5.,.=.$.O.O.O.} ] ] } ^ LXLX",
"LXLXLXLXLXLXLXf f f f LXLXLXLXLXU.Y.LXLXLXg g t g t g LXLXLXVXVXLXLXLXLXLXf f f f f LXLXLX8 q.e.7.4.5.=.=.=.&.$.O.O.O.] } } LXLX",
"LXLXLXLXLXLXLXf f f f f LXLXLXLX: Z.LXLXLXt t g t g g LXLXLXZXZXLXLXLXLXf f f f f f LXLXLXI c.d.p.e.7.4.8.LXLXLX$.$.O.| } } LXLX",
"LXLXLXLXLXLXLXLXf f f f LXLXLXLX- - LXLXLXLXg t g t g LXLXLXVXVXLXLXLXf f f f f f LXLXLXLXw.b.c.j.s.p.8.LXLXLXLXLXLX$.$.O.LXLXLX",
"LXLXLXLXLXLXLXLXf f f f f LXLXLX# * LXLXLXLXt g t g LXLXLXLXmXVXLXLXLXf f f LXLXLXLXLXLXd.b.V.b.v.k.d.p.LXLXLXLXLXLXLXLX$.LXLXLX",
"LXLXLXLXLXLXLXLXf f f f f LXLXLXX # LXLXLXLXLXg g LXLXLXLXLXaXnXLXLXLXLXf LXf LXLXLXLXt M =.c.B.M.v.c.LXLXLXLXLXLXLXLXLX$.LXLXLX",
"LXLXLXLXLXLXLXLXf f f f f f LXLXX X # - LXLXLXLXLXLXLXLXLXLXiXaXLXLXLXLXLXLXLXLXLXLXJ f f l _ i.M.V.LXLXLXLXLXLXLXLXLXLX=.LXLXLX",
"LXLXLXLXLXLXLXLXf f f f f f f LXLXX X * * - LXLXLXLXLXLXLXLX9XwXLXLXLXLXLXLXLXLXLXA y f f f f v =.j.LXLXLXLXLXLXLXLXLX5.LXLXLXLX",
"LXLXLXLXLXLXLXf f f f f f f f f LXLXLXX # * C.LXLXLXLXLXLXLX,X9XLXLXLXLXLXLXLX@XD u f f f f f f l LXLXLXLXLXLXLXLXLXLX8.LXLXLXLX",
"LXLXLXLXLXf f f f f f f f f f f l g LXLXLX# * C.Z.LXLXLXLXLX:X,XLXLXLXLXLXcXbXL f f f f f f f f f LXLXLXLXLXLXLXLXLXLXp.LXLXLXLX",
"LXLXLXLXf f f f f f f f f f f f g t g LXLXLX# - C.S.LXLXLXLX#X%XLXLXLXLXbXF a k f f f f f f f f LXLXLXLXLXLXLXLXLXLXc.LXLXLXLXLX",
"LXLXLXLXf f f f f f f f f f f f f f f f g k LXw @ > S.Y.LXLX'.oXLXLXH K i k f f f f f f f f f LXLXLXLXLXLXLXLXLXLXLXb.LXLXLXLXLX",
"LXLXLXLXLXf f f f f f f f f f f f f f f u g f f r C 0 9 q G S Z i f f k f f f f f f f f f f f LXLXLXLXLXLXLXLXLXLXb.LXLXLXLXLXLX",
"LXLXLXLXLXf f f f f f f f f f f f f f f f f f f f k f k k g k f f f f f f f f f LXLXLXf f f f LXLXLXLXLXLXLXLXLXl O.LXLXLXLXLXLX",
"LXLXLXLXLXLXf f f f f f f f f f f f f f f f f f f f f f u g f f f f f f f f LXLXLXf LXf f f f LXLXLXLXLXLXLXLXLXf LXLXLXLXLXLXLX",
"LXLXLXLXLXLXf f f f f f f f f f f f f f f f f f f f f f f f f f f f f f LXf LXLXf f f LXf f f LXLXLXLXLXLXLXLXf LXLXLXLXLXLXLXLX",
"LXLXLXLXLXLXLXf f f f f f f f f f f f f f f f f f f f f f f f f f f f LXLXf f LXLXLXLXLXLXf f f LXLXLXLXLXLXf LXLXLXLXLXLXLXLXLX",
"LXLXLXLXLXLXLXLXf f f f f f f f f f f f f f f f f f f f f f f f LXLXf f LXLXf LXLXf f LXLXf f f f LXLXLXLXLXf LXLXLXLXLXLXLXLXLX",
"LXLXLXLXLXLXLXLXf f f f f f f f f LXLXLXLXLXLXLXf f f f f f f f LXLXf f LXLXf f f f f LXLXf f f f f f LXLXf LXLXLXLXLXLXLXLXLXLX",
"LXLXLXLXLXLXLXLXLXf f f f f f f f LXLXLXLXLXLXLXLXLXLXLXf f f f f LXLXLXLXLXLXf LXLXLXLXLXf f f f f f f f LXLXLXLXLXLXLXLXLXLXLX",
"LXLXLXLXLXLXLXLXLXLXf f f f f f LXLXLXLXLXLXLXLXLXLXLXLXLXLXf f f LXLXf f LXLXf LXLXf f f f f f f f f f LXLXLXLXLXLXLXLXLXLXLXLX",
"LXLXLXLXLXLXLXLXLXLXLXf f f f f LXLXLXLXLXLXLXLXLXLXLXLXLXLXLXf f f LXLXf f LXLXf f f f f f f f f f LXLXLXLXLXLXLXLXLXLXLXLXLXLX",
"LXLXLXLXLXLXLXLXLXLXLXLXLXf f f LXLXLXLXLXLXLXLXLXLXLXLXLXLXLXf f f LXLXf f f f f f f f f f f f f LXLXLXLXLXLXLXLXLXLXLXLXLXLXLX",
"LXLXLXLXLXLXLXLXLXLXLXLXLXLXf f LXLXLXLXLXLXLXLXLXLXLXLXLXLXLXf f f LXLXf f f f f f f f f f f f LXLXLXLXLXLXLXLXLXLXLXLXLXLXLXLX",
"LXLXLXLXLXLXLXLXLXLXLXLXLXLXLXLXLXLXLXLXLXLXLXLXLXLXLXLXLXLXLXf f f f f f f f f f f f f f f LXLXLXLXLXLXLXLXLXLXLXLXLXLXLXLXLXLX",
"LXLXLXLXLXLXLXLXLXLXLXLXLXLXLXLXLXLXLXLXLXLXLXLXLXLXLXLXLXLXLXf f f f f f f f f f f f f LXLXLXLXLXLXLXLXLXLXLXLXLXLXLXLXLXLXLXLX",
"LXLXLXLXLXLXLXLXLXLXLXLXLXLXLXLXLXLXLXLXLXLXLXLXLXLXLXLXLXLXLXf f f f f f f f f f f LXLXLXLXLXLXLXLXLXLXLXLXLXLXLXLXLXLXLXLXLXLX",
"LXLXLXLXLXLXLXLXLXLXLXLXLXLXLXLXLXLXLXLXLXLXLXLXLXLXLXLXLXLXLXf f f f f f f f LXLXLXLXLXLXLXLXLXLXLXLXLXLXLXLXLXLXLXLXLXLXLXLXLX",
"LXLXLXLXLXLXLXLXLXLXLXLXLXLXLXLXLXLXLXLXLXLXLXLXLXLXLXLXLXLXLXLXLXLXLXLXLXLXLXLXLXLXLXLXLXLXLXLXLXLXLXLXLXLXLXLXLXLXLXLXLXLXLXLX",
"LXLXLXLXLXLXLXLXLXLXLXLXLXLXLXLXLXLXLXLXLXLXLXLXLXLXLXLXLXLXLXLXLXLXLXLXLXLXLXLXLXLXLXLXLXLXLXLXLXLXLXLXLXLXLXLXLXLXLXLXLXLXLXLX",
"LXLXLXLXLXLXLXLXLXLXLXLXLXLXLXLXLXLXLXLXLXLXLXLXLXLXLXLXLXLXLXLXLXLXLXLXLXLXLXLXLXLXLXLXLXLXLXLXLXLXLXLXLXLXLXLXLXLXLXLXLXLXLXLX"
};
