/* XPM */
static char *_86c1b7041104530c33c731079df2863[] = {
/* columns rows colors chars-per-pixel */
"16 16 66 1 ",
"  c #1A2E73",
". c #3D3168",
"X c #793151",
"o c #4B3769",
"O c #5D3661",
"+ c #BA363E",
"@ c #CD3738",
"# c #C3383F",
"$ c #C43A3F",
"% c #CA383B",
"& c #D33735",
"* c #D13736",
"= c #D03737",
"- c #D23736",
"; c #D33736",
": c #D23737",
"> c #D43735",
", c #D53735",
"< c #D23837",
"1 c #D33837",
"2 c #D03838",
"3 c #D23A39",
"4 c #D23B3A",
"5 c #D23B3B",
"6 c #D23D3D",
"7 c #D33E3E",
"8 c #953349",
"9 c #96354C",
"0 c #A2394D",
"q c #BE3A41",
"w c #B53E4A",
"e c #C03840",
"r c #92526E",
"t c #D34040",
"y c #D44040",
"u c #D44141",
"i c #D14547",
"p c #D54444",
"a c #D94340",
"s c #D74949",
"d c #D84A4A",
"f c #D84C4C",
"g c #D54E50",
"h c #DB5151",
"j c #DB5252",
"k c #DD5B5B",
"l c #DC5E60",
"z c #E46969",
"x c #E56B6B",
"c c #083786",
"v c #083A8B",
"b c #0A3C8C",
"n c #0C3D8E",
"m c #0B3E90",
"M c #083F92",
"N c #0B4297",
"B c #0C489F",
"V c #0C4CA5",
"C c #0C4CA6",
"Z c #0C4DA7",
"A c #0A4CA8",
"S c #084EAB",
"D c #0C59BC",
"F c #095CC1",
"G c #0C5DC1",
"H c None",
/* pixels */
"HHHHHHHHHHHHHHHH",
"HHHHHpyHH===HHHH",
"HHHHhdaw$1==HHHH",
"HHHzHHHSMH11HHHH",
"HH4HHZGDBbHq3HHH",
"H==HcnZHHZvO733H",
"H==HHHmZGFH.iy7H",
"H=,HHHHNHHHogdpt",
"HH,HH,,HH=Hrkjfd",
"HH=8HHHHHHHlzHHH",
"H==@X HHHH$3HHHH",
"H==2=+90e%==HHHH",
"HH===,=,=HH=HHHH",
"HHH=HHHH====2HHH",
"HHHHHHHH===HHHHH",
"HHHHHHHHHHHHHHHH"
};
